<svg viewBox="0 0 40 40"
    xmlns="http://www.w3.org/2000/svg">
    <g>
        <path fill="#757575" d="M20.727 28.875c.347 1.058.442 2.179.286 3.363-.157 1.183-.674 2.84-1.552 4.97-.914-2.105-1.427-3.747-1.538-4.927a9.021 9.021 0 01.294-3.371l2.51-.035zm10.11-3.673c.159 1.489.364 2.358.615 2.609.252.252 1.114.453 2.586.603-1.482.208-2.35.44-2.605.694-.257.257-.486 1.117-.685 2.579-.159-1.458-.362-2.312-.612-2.561-.245-.245-1.106-.448-2.583-.608 1.473-.198 2.34-.427 2.602-.689.255-.256.483-1.132.681-2.627zM20.703 6.729l.326 1.88.134-.001.34.6-.038 2.727-.134.897.281-.485.792-1.107 2.065.99-.018 1.297-.76 1.57 4.968 1.853.653.132v-2.133h.9l-.001 2.315 1.093.22-.695 2.054-2.755-.398c-.001.08-.082.647-.243 1.701l-.908.013-2.828-1.22-.664.009.366 11.257-.68-.548-.495-.978-.093-1.151h-5.671l-.132 1.234-.486.992-.8.568.76-11.272-.6.008-3.058 1.304-.746.01-.129-1.696-3.414.286-.066-1.785 1.121-.296v-2.343h.9v2.105l.501-.132 4.954-1.992-.57-1.552.019-1.298 2.243-1.05.673.963.294.6-.146-.913.038-2.707.38-.61.106-.001.372-1.891 1.85-.026zm1.059 14.682l-.628.844.252 1.508-.17.29v2.352h-3.273v-2.376l-.247-.266.247-1.508-.579-.784-.592 5.506h5.437l-.447-5.566zm-11.2-15.952c.222 2.069.506 3.277.855 3.625.35.35 1.548.63 3.594.839-2.06.29-3.267.61-3.62.963-.357.358-.675 1.552-.952 3.584-.22-2.026-.504-3.212-.85-3.558-.34-.34-1.537-.622-3.589-.845 2.046-.275 3.25-.594 3.614-.957.356-.356.672-1.573.948-3.651zM25.454 3c.135 1.266.31 2.006.523 2.219.215.214.948.385 2.2.513-1.261.177-2 .373-2.216.59-.218.218-.413.95-.583 2.193-.134-1.24-.308-1.966-.52-2.178-.208-.208-.94-.38-2.196-.517 1.252-.168 1.99-.363 2.212-.586.218-.217.41-.962.58-2.234z"></path>
    </g>
</svg>